<svg xmlns="http://www.w3.org/2000/svg" viewBox="0 0 160 160"><path fill="#0171F3" d="M84 161H1V1h160v160H84m32.259-69.114c9.676-3.456 13.521-15.236 7.554-23.547-3.916-5.455-9.71-5.992-15.68-5.056-5.788.906-9.27 4.724-10.378 10.608-2.326 12.348 4.163 18.974 18.504 17.995M22.91 88.13c-.267 2.498.815 4.165 3.32 3.429 1.183-.348 2.507-2.212 2.695-3.541.418-2.939-.09-6.007.3-8.953.146-1.097 1.743-2.002 2.679-2.995.83 1.006 2.252 1.942 2.379 3.03.345 2.957-.209 6.04.31 8.946.244 1.367 2.132 2.44 3.275 3.645 1.015-1.152 2.747-2.214 2.905-3.474.41-3.276.27-6.647.096-9.967-.312-5.94-4.446-8.48-10.055-6.356-1.16.44-2.39 1.141-3.547 1.07-5.332-.323-10.65-.876-16.292-1.376 0 6.172.09 11.318-.039 16.458-.06 2.446.705 4.257 3.25 3.526 1.331-.383 2.89-2.24 3.14-3.646.52-2.91-.017-5.999.41-8.937.155-1.076 1.81-1.934 2.781-2.892.793 1.047 2.123 2.023 2.271 3.155.344 2.618.117 5.312.122 8.878m49.152.807c1.404.917 2.958 2.78 4.186 2.586 5.53-.872.965-6.047 3.528-8.639 2.65-.246 5.642-.306 8.544-.846 4.361-.813 6.454-3.78 6.677-8.118.223-4.369-.958-8.548-5.563-9.391-5.551-1.017-11.335-.76-17.379-1.074 0 8.972 0 16.776.007 25.482M143.798 68.2c2.812 1.132 5.759 2.597 6.187-2.383-5.034-3.15-11.266-3.768-15.684-1.614-5.54 2.701-6.183 9.318-1.164 12.905 1.463 1.045 3.26 1.611 4.843 2.506 2.387 1.35 7.102 1.328 5.725 5.36-1.404 4.113-5.627 1.928-8.753 1.718-.316-.021-.636-.198-.927-.354-3.249-1.746-4.391-.034-5.039 3.004 5.252 3.301 10.912 3.832 16.35 2.097 2.303-.735 5.015-3.822 5.325-6.137.307-2.29-1.789-5.292-3.569-7.34-1.287-1.482-3.945-1.677-5.691-2.882-1.708-1.18-3.034-2.912-4.528-4.401 2.046-.864 4.091-1.728 6.925-2.479M50.607 84.965c.355.75.718 1.495 1.064 2.25 2.218 4.836 1.776 5.328-3.582 5.487-1.197.035-2.348 1.637-3.74 2.682 5.386 3.542 9.69 3.826 11.864.183 4.412-7.394 8.039-15.256 12.072-23.085-10.506-2.975-8.068 6.963-11.958 10.134-3.713-3.477-1.634-13.163-11.59-10.154 1.892 4.087 3.69 7.97 5.87 12.503z"/><path fill="#F3F8FE" d="M115.874 91.942c-13.956.923-20.445-5.703-18.119-18.05 1.109-5.885 4.59-9.703 10.377-10.61 5.97-.935 11.765-.398 15.681 5.057 5.967 8.31 2.122 20.09-7.939 23.603M104.73 81.553c2.04 5.01 4.958 6.669 9.551 5.429 3.77-1.018 5.675-4.921 5.175-10.7-.374-4.322-1.741-7.916-6.84-8.289-3.976-.29-6.942 1.295-7.743 5.397-.467 2.393-.262 4.916-.143 8.163z"/><path fill="#F1F7FE" d="M22.91 87.678c-.004-3.114.223-5.808-.12-8.426-.15-1.132-1.479-2.108-2.272-3.155-.97.958-2.626 1.816-2.782 2.892-.426 2.938.111 6.028-.408 8.937-.251 1.406-1.81 3.263-3.142 3.646-2.544.731-3.31-1.08-3.249-3.526.129-5.14.04-10.286.04-16.458 5.642.5 10.96 1.053 16.29 1.377 1.159.07 2.387-.631 3.548-1.07 5.609-2.125 9.743.415 10.055 6.355.174 3.32.315 6.69-.096 9.967-.158 1.26-1.89 2.322-2.905 3.474-1.143-1.205-3.03-2.278-3.275-3.645-.519-2.905.035-5.99-.31-8.946-.127-1.088-1.549-2.024-2.38-3.03-.935.993-2.532 1.898-2.678 2.995-.39 2.946.118 6.014-.3 8.953-.188 1.329-1.512 3.193-2.695 3.54-2.505.737-3.587-.93-3.32-3.88z"/><path fill="#F2F8FE" d="M72.06 88.486c-.004-8.255-.004-16.059-.004-25.031 6.044.313 11.828.057 17.379 1.074 4.605.843 5.786 5.022 5.563 9.391-.223 4.338-2.316 7.305-6.677 8.118-2.902.54-5.894.6-8.544.846-2.563 2.592 2.002 7.767-3.528 8.64-1.228.193-2.782-1.67-4.19-3.038m7.59-19.54l-.827 7.994c6.223 1.038 8.33.451 9.15-2.255 1.27-4.196-.935-5.955-8.323-5.74zm63.755-.803c-2.44.807-4.485 1.67-6.531 2.535 1.494 1.49 2.82 3.221 4.528 4.4 1.746 1.206 4.404 1.401 5.691 2.883 1.78 2.048 3.876 5.05 3.569 7.34-.31 2.315-3.022 5.402-5.324 6.137-5.439 1.735-11.099 1.204-16.351-2.097.648-3.038 1.79-4.75 5.04-3.004.29.156.61.333.926.354 3.126.21 7.349 2.395 8.753-1.719 1.377-4.03-3.338-4.01-5.725-5.36-1.583-.894-3.38-1.46-4.843-2.505-5.02-3.587-4.376-10.204 1.164-12.905 4.418-2.154 10.65-1.536 15.684 1.614-.428 4.98-3.375 3.515-6.58 2.327z"/><path fill="#F4F9FF" d="M50.416 84.64c-1.989-4.208-3.787-8.091-5.68-12.178 9.957-3.009 7.878 6.677 11.591 10.154 3.89-3.171 1.452-13.109 11.958-10.134-4.033 7.829-7.66 15.691-12.072 23.085-2.174 3.643-6.478 3.36-11.864-.183 1.392-1.045 2.543-2.647 3.74-2.682 5.358-.159 5.8-.651 3.582-5.488-.346-.754-.71-1.5-1.255-2.574z"/><path fill="#0876F3" d="M104.622 81.162c-.01-2.856-.216-5.38.25-7.772.802-4.102 3.768-5.687 7.744-5.397 5.099.373 6.466 3.967 6.84 8.289.5 5.779-1.405 9.682-5.175 10.7-4.593 1.24-7.512-.42-9.659-5.82z"/><path fill="#0F7AF4" d="M80.1 68.855c6.937-.125 9.141 1.634 7.871 5.83-.819 2.706-2.926 3.293-9.149 2.255.271-2.62.549-5.307 1.278-8.085z"/></svg>